Coordinates
version=1
nRows=17
nColumns=36
inDegrees=yes

Units are S.I. units (second, meters, Newtons, ...)
If the header above contains a line with 'inDegrees', this indicates whether rotational values are in degrees (yes) or radians (no).

endheader
time	pelvis_tilt	pelvis_list	pelvis_rotation	pelvis_tx	pelvis_ty	pelvis_tz	hip_flexion_r	hip_adduction_r	hip_rotation_r	knee_angle_r	knee_angle_r_beta	ankle_angle_r	subtalar_angle_r	mtp_angle_r	hip_flexion_l	hip_adduction_l	hip_rotation_l	knee_angle_l	knee_angle_l_beta	ankle_angle_l	subtalar_angle_l	mtp_angle_l	lumbar_extension	lumbar_bending	lumbar_rotation	arm_flex_r	arm_add_r	arm_rot_r	elbow_flex_r	pro_sup_r	arm_flex_l	arm_add_l	arm_rot_l	elbow_flex_l	pro_sup_l
      5.43333330	     -9.74360070	      3.05507790	     -4.54770249	      0.06615329	      1.19551099	      0.13373590	     10.76371933	      0.06075109	    -13.27170035	      7.55660270	      0.13188760	      8.80540326	     -8.47653133	     -7.49999987	     12.38797803	     -3.27431988	     -2.96901004	     12.95709397	      0.22614395	      5.58254916	     -2.11132003	     -7.49999987	      5.37320743	     -0.84958841	     -0.71803064	     10.02747720	    -13.56862111	     14.49115041	     69.10348517	     75.82806736	      2.89863898	    -12.74407944	     11.68409852	     63.97292877	     88.50468931
      5.45000000	     -9.70145196	      3.19737186	     -4.37740118	      0.06091662	      1.19774108	      0.13459540	     10.78108054	      0.06149328	    -13.41391783	      7.39395122	      0.12904879	      9.15532065	     -8.51252231	     -7.49999987	     13.02964349	     -3.32618323	     -2.82579848	     14.12474674	      0.24652334	      5.32101488	     -2.67095703	     -7.49999987	      5.40366133	     -0.95652580	     -0.73792775	      9.79242314	    -13.73524884	     13.67389772	     70.64671180	     76.23087856	      3.32902921	    -12.58955231	     11.95672823	     64.24666528	     89.15945049
      5.46666670	     -9.78654045	      3.25172222	     -4.18022761	      0.06014415	      1.19449108	      0.13775646	     10.97986915	      0.17555535	    -13.19060604	      7.46577197	      0.13030230	      9.64993333	     -8.42371671	     -7.49999987	     14.05859470	     -3.56138113	     -2.91887154	     15.76555213	      0.27516079	      5.34200683	     -2.86432061	     -7.49999987	      5.78096418	     -0.97937850	     -0.99098727	     10.12498934	    -13.75555244	     13.43020159	     71.29279861	     75.56711479	      3.59603305	    -12.44866412	     12.12974212	     64.61166214	     87.92345479
      5.48333330	     -9.38051387	      3.13463008	     -3.87519249	      0.06086376	      1.19988842	      0.13997101	     10.52136068	      0.38670981	    -13.34657323	      7.31553868	      0.12768024	      9.59757264	     -8.53476121	     -7.49999987	     14.56501768	     -3.84747689	     -2.53012403	     17.55667676	      0.30642182	      5.01676138	     -3.68417603	     -7.49999987	      5.23243051	     -0.85964146	     -0.49520782	      9.11797443	    -13.89439923	     11.22012799	     73.57293949	     76.57498761	      4.84707708	    -12.06260340	     13.39523760	     64.21514812	     89.63542270
      5.50000000	     -9.40601484	      3.02913472	     -3.59263232	      0.06150720	      1.19343512	      0.14195486	     10.48051225	      0.63678096	    -13.11899951	      7.18883278	      0.12546880	      9.77352865	     -8.87687145	     -7.49999987	     15.75549755	     -4.16740134	     -2.18748774	     19.71546778	      0.34409983	      5.37453907	     -4.20481081	     -7.49999987	      5.38389270	     -0.64987199	     -0.92019310	      9.35127835	    -14.05916976	     10.99402810	     74.55932410	     76.15851935	      4.89839443	    -11.90227535	     13.46738967	     64.85932796	     89.05903117
      5.51666670	     -9.10075144	      2.99356073	     -3.28864638	      0.06283814	      1.19735974	      0.14454240	      9.91779185	      0.79820787	    -12.97986999	      7.04474849	      0.12295406	     10.29226194	     -8.61959897	     -7.49999987	     16.38919956	     -4.31138070	     -1.68088377	     21.41365620	      0.37373881	      5.95826637	     -4.56473727	     -7.49999987	      5.13538683	     -0.60798295	     -1.30174739	      9.43878413	    -14.14196182	     10.76770607	     75.32667111	     76.23460746	      5.01262607	    -11.72168169	     13.66332628	     65.17682931	     89.15680582
      5.53333330	     -8.92030040	      3.08094836	     -3.09792400	      0.06206210	      1.19796440	      0.14637577	      9.47546641	      0.84096315	    -13.14329440	      6.73783764	      0.11759745	     10.54783755	     -8.38835320	     -7.49999987	     16.96064913	     -4.31557801	     -1.36367499	     22.73229133	      0.39675333	      6.30351192	     -5.08562083	     -7.49999987	      4.90911014	     -0.68536003	     -1.32817847	      9.09636201	    -14.20524596	     10.05478659	     76.90589589	     75.69759053	      5.10632392	    -11.61593792	     13.86751220	     66.08846386	     88.28674421
      5.55000000	     -8.75136834	      3.10046334	     -2.91232011	      0.06415857	      1.19533664	      0.14737684	      9.03306037	      0.94613920	    -13.06840512	      6.49081278	      0.11328605	     10.19259013	     -8.77937658	     -7.49999987	     17.56550514	     -4.34466463	     -0.94651728	     23.92659350	      0.41759784	      6.63790500	     -5.72675817	     -7.49999987	      5.01440776	     -0.70362441	     -1.60352702	      9.27325531	    -14.16280724	      9.89248231	     77.52642575	     74.36170637	      5.06452973	    -11.43601348	     13.90412999	     66.67902905	     86.33058787
      5.56666670	     -8.42945058	      3.19104170	     -2.79761766	      0.06473786	      1.19779457	      0.14814562	      8.60725809	      0.93117953	    -12.67211353	      6.43107352	      0.11224341	     10.75237211	     -8.60249891	     -7.49999987	     17.66499844	     -4.23611726	     -0.68420888	     24.37782690	      0.42547334	      7.17766566	     -6.22176380	     -7.49999987	      4.79172090	     -0.72794106	     -1.65287543	      9.33631077	    -14.18105969	      9.69288969	     78.06515980	     73.54894859	      5.07022539	    -11.23181195	     13.98110993	     67.48766217	     85.09509783
      5.58333330	     -8.08669719	      3.19868559	     -2.71744754	      0.06487089	      1.19612840	      0.14869631	      8.04485938	      0.93913505	    -12.85888600	      6.30082826	      0.10997020	     10.29441087	     -8.79215063	     -7.49999987	     17.60845296	     -4.15680210	     -0.38083937	     24.58619368	      0.42911003	      7.57207072	     -6.07583903	     -7.49999987	      4.67388278	     -0.69663023	     -1.72446664	      9.41186999	    -14.22413676	      9.51091573	     78.50905689	     73.54657074	      5.21814010	    -11.04301393	     14.07315943	     68.22422115	     84.78483789
      5.60000000	     -7.86441926	      3.29428174	     -2.80314447	      0.06214800	      1.19774664	      0.15051026	      7.79191615	      0.93605038	    -12.60647675	      6.26583161	      0.10935939	     10.18574496	     -9.04694716	     -7.49999987	     17.48856589	     -4.02535094	     -0.13804642	     24.24481004	      0.42315176	      7.70857117	     -5.83983793	     -7.49999987	      4.58706661	     -0.82048674	     -1.70387677	      9.81802581	    -14.18317441	      9.49047104	     78.59110001	     73.27416754	      5.44143567	    -10.85486841	     14.04900311	     68.88124158	     84.36279503
      5.61666670	     -7.57610834	      3.23936143	     -2.73410747	      0.06276703	      1.19532596	      0.15010977	      7.43145648	      1.02538682	    -12.36325527	      6.21620304	      0.10849321	      9.96958961	     -9.49080326	     -7.49999987	     17.24488500	     -4.04469327	      0.07088754	     23.81495358	      0.41564935	      7.84195747	     -5.18860758	     -7.49999987	      4.55162212	     -0.78249624	     -2.24277453	     10.72847258	    -14.06438132	      9.88593705	     78.03374958	     76.20806866	      5.34075906	    -10.63373086	     13.09606160	     69.77474678	     88.96144802
      5.63333330	     -7.27535200	      3.16608666	     -2.51750687	      0.06424957	      1.19664505	      0.14952007	      7.05356035	      1.13216903	    -12.28218121	      6.41402111	      0.11194579	     10.00928757	     -9.69788115	     -7.49999987	     16.81943131	     -4.04311276	      0.40963199	     23.29264663	      0.40653338	      8.06420976	     -4.70971637	     -7.49999987	      4.45913772	     -0.72998292	     -2.48372906	     10.95680574	    -14.05167331	      9.94443629	     78.29516654	     74.57345780	      5.58804739	    -10.42591953	     13.27674997	     70.35503155	     86.52883664
      5.65000000	     -7.20682501	      3.07529354	     -2.38576645	      0.06106618	      1.19376587	      0.14833971	      7.11330422	      1.21686763	    -12.09252924	      6.70161110	      0.11696518	     10.30924013	     -9.76565653	     -7.49999987	     16.74868402	     -4.08717117	      0.58784774	     22.99253597	      0.40129546	      8.07649939	     -4.51979095	     -7.49999987	      4.67141366	     -0.66821638	     -2.68020313	     11.34250647	    -14.05618682	      9.88806957	     78.42294194	     74.58089368	      6.17700126	    -10.15058043	     13.34036216	     70.68634511	     86.54940128
      5.66666670	     -6.85662958	      3.07507734	     -2.37661072	      0.05816831	      1.19512209	      0.14803784	      7.09069575	      1.17746313	    -11.83355817	      7.30358670	      0.12747164	     10.39141410	    -10.36516945	     -7.49999987	     16.40100659	     -4.06086199	      0.56640223	     22.60453059	      0.39452348	      8.00061416	     -4.13187055	     -7.49999987	      4.37492587	     -0.69686620	     -2.91317955	     11.97063467	    -14.07508063	     10.18982707	     78.54909393	     73.60824433	      6.82749741	    -10.15713170	     13.68447851	     71.09274903	     85.12492615
      5.68333330	     -6.73785500	      3.09184413	     -2.37007519	      0.06095307	      1.19165667	      0.14821029	      7.30141855	      1.12092915	    -11.67120631	      7.98746287	      0.13940753	     10.69118951	    -10.64643620	     -7.49999987	     16.16812522	     -4.02044084	      0.59185608	     22.40338531	      0.39101284	      8.19702735	     -3.75264463	     -7.49999987	      4.46503204	     -0.76985895	     -3.24412302	     12.13986557	    -14.03080055	     10.28718163	     79.19378508	     74.62212486	      7.16318209	    -10.20225775	     13.44618650	     71.78686556	     86.83839568
      5.70000000	     -6.56739409	      3.15136439	     -2.48301617	      0.06427132	      1.19420148	      0.14963105	      7.21662025	      1.09408327	    -11.34974993	      8.32019697	      0.14521483	     10.65799543	    -11.12756665	     -7.49999987	     15.57899062	     -3.97141010	      0.57390721	     21.91918720	      0.38256199	      8.18835997	     -3.53653935	     -7.49999987	      4.65865234	     -0.92019479	     -3.47807731	     11.94273008	    -13.90423570	     10.48196289	     79.79346856	     73.83240686	      7.24339022	    -10.26860131	     13.24558317	     72.18386730	     85.70043080
